<svg id="Grupo_23" data-name="Grupo 23" xmlns="http://www.w3.org/2000/svg" width="40" height="40" viewBox="0 0 40 40">
  <path id="Caminho_61" data-name="Caminho 61" d="M468.33,0a20,20,0,1,1-20,20,20,20,0,0,1,20-20" transform="translate(-448.33 0)" fill="#fff"/>
  <path id="Caminho_62" data-name="Caminho 62" d="M485.545,27.2c3.261,0,3.648.012,4.936.071a6.756,6.756,0,0,1,2.268.421,4.044,4.044,0,0,1,2.318,2.318,6.765,6.765,0,0,1,.421,2.268c.059,1.288.071,1.674.071,4.936s-.012,3.648-.071,4.936a6.765,6.765,0,0,1-.421,2.268,4.044,4.044,0,0,1-2.318,2.318,6.756,6.756,0,0,1-2.268.421c-1.288.059-1.674.071-4.936.071s-3.648-.012-4.936-.071a6.756,6.756,0,0,1-2.268-.421,4.044,4.044,0,0,1-2.318-2.318,6.755,6.755,0,0,1-.421-2.268c-.059-1.288-.071-1.674-.071-4.936s.012-3.648.071-4.936a6.755,6.755,0,0,1,.421-2.268,4.044,4.044,0,0,1,2.318-2.318,6.756,6.756,0,0,1,2.268-.421c1.288-.059,1.674-.071,4.936-.071m0-2.2c-3.317,0-3.733.014-5.036.074a8.967,8.967,0,0,0-2.965.568,6.246,6.246,0,0,0-3.573,3.572,8.968,8.968,0,0,0-.568,2.965c-.06,1.3-.074,1.719-.074,5.036s.014,3.733.074,5.036a8.968,8.968,0,0,0,.568,2.965,6.246,6.246,0,0,0,3.573,3.572,8.967,8.967,0,0,0,2.965.568c1.3.059,1.719.074,5.036.074s3.733-.014,5.036-.074a8.967,8.967,0,0,0,2.965-.568,6.246,6.246,0,0,0,3.572-3.572,8.968,8.968,0,0,0,.568-2.965c.06-1.3.074-1.719.074-5.036s-.014-3.733-.074-5.036a8.968,8.968,0,0,0-.568-2.965,6.246,6.246,0,0,0-3.572-3.572,8.967,8.967,0,0,0-2.965-.568c-1.3-.059-1.719-.074-5.036-.074" transform="translate(-465.545 -17.215)" fill="#ee205a"/>
  <path id="Caminho_63" data-name="Caminho 63" d="M500.8,45.676a6.8,6.8,0,1,0,6.8,6.8,6.8,6.8,0,0,0-6.8-6.8m0,11.208a4.412,4.412,0,1,1,4.412-4.412,4.412,4.412,0,0,1-4.412,4.412" transform="translate(-480.802 -32.472)" fill="#ee205a"/>
  <path id="Caminho_64" data-name="Caminho 64" d="M536.593,41.3a1.588,1.588,0,1,1-1.588-1.588,1.588,1.588,0,0,1,1.588,1.588" transform="translate(-508.311 -27.995)" fill="#ee205a"/>
</svg>
